<svg class="main-svg" xmlns="http://www.w3.org/2000/svg" xmlns:xlink="http://www.w3.org/1999/xlink" width="2200" height="1000" style="" viewBox="0 0 1100 500"><rect x="0" y="0" width="1100" height="500" style="fill: rgb(255, 255, 255); fill-opacity: 1;"/><defs id="defs-c4f44d"><g class="clips"><clipPath id="clipc4f44dxyplot" class="plotclip"><rect width="1022" height="385"/></clipPath><clipPath class="axesclip" id="clipc4f44dx"><rect x="61" y="0" width="1022" height="500"/></clipPath><clipPath class="axesclip" id="clipc4f44dy"><rect x="0" y="50" width="1100" height="385"/></clipPath><clipPath class="axesclip" id="clipc4f44dxy"><rect x="61" y="50" width="1022" height="385"/></clipPath></g><g class="gradients"/><g class="patterns"/></defs><g class="bglayer"/><g class="layer-below"><g class="imagelayer"/><g class="shapelayer"/></g><g class="cartesianlayer"><g class="subplot xy"><g class="layer-subplot"><g class="shapelayer"/><g class="imagelayer"/></g><g class="minor-gridlayer"><g class="x"/><g class="y"/></g><g class="gridlayer"><g class="x"><path class="xgrid crisp" transform="translate(261.31,0)" d="M0,50v385" style="stroke: rgb(0, 0, 0); stroke-opacity: 0.05; stroke-width: 1px;"/><path class="xgrid crisp" transform="translate(465.71,0)" d="M0,50v385" style="stroke: rgb(0, 0, 0); stroke-opacity: 0.05; stroke-width: 1px;"/><path class="xgrid crisp" transform="translate(670.11,0)" d="M0,50v385" style="stroke: rgb(0, 0, 0); stroke-opacity: 0.05; stroke-width: 1px;"/><path class="xgrid crisp" transform="translate(874.51,0)" d="M0,50v385" style="stroke: rgb(0, 0, 0); stroke-opacity: 0.05; stroke-width: 1px;"/><path class="xgrid crisp" transform="translate(1078.9099999999999,0)" d="M0,50v385" style="stroke: rgb(0, 0, 0); stroke-opacity: 0.05; stroke-width: 1px;"/></g><g class="y"><path class="ygrid crisp" transform="translate(0,358)" d="M61,0h1022" style="stroke: rgb(0, 0, 0); stroke-opacity: 0.05; stroke-width: 1px;"/><path class="ygrid crisp" transform="translate(0,281)" d="M61,0h1022" style="stroke: rgb(0, 0, 0); stroke-opacity: 0.05; stroke-width: 1px;"/><path class="ygrid crisp" transform="translate(0,204)" d="M61,0h1022" style="stroke: rgb(0, 0, 0); stroke-opacity: 0.05; stroke-width: 1px;"/><path class="ygrid crisp" transform="translate(0,127)" d="M61,0h1022" style="stroke: rgb(0, 0, 0); stroke-opacity: 0.05; stroke-width: 1px;"/></g></g><g class="zerolinelayer"><path class="yzl zl crisp" transform="translate(0,435)" d="M61,0h1022" style="stroke: rgb(0, 0, 0); stroke-opacity: 0.05; stroke-width: 1px;"/></g><g class="layer-between"><g class="shapelayer"/><g class="imagelayer"/></g><path class="xlines-below"/><path class="ylines-below"/><g class="overlines-below"/><g class="xaxislayer-below"/><g class="yaxislayer-below"/><g class="overaxes-below"/><g class="overplot"><g class="xy" transform="translate(61,50)" clip-path="url(#clipc4f44dxyplot)"><g class="scatterlayer mlayer"><g class="trace scatter tracef95659" style="stroke-miterlimit: 2; opacity: 1;"><g class="fills"/><g class="errorbars"/><g class="lines"><path class="js-line" d="M0,206.79L4.09,206.18L8.18,227.33L16.35,202.61L20.44,210.17L24.53,218.57L28.62,207.44L32.7,220.9L36.79,223.28L40.88,226.59L44.97,244.03L49.06,224.23L53.14,216.16L57.23,228.5L61.32,209.15L65.41,220.83L69.5,209.08L73.58,231.91L77.67,220.4L81.76,232.62L85.85,216.37L89.94,218.95L94.02,229.97L98.11,232.05L102.2,207L106.29,223.11L110.38,230.08L114.46,236.24L118.55,216.59L122.64,233.12L126.73,214.67L130.82,240.69L134.9,208.7L138.99,223.78L143.08,205.78L147.17,207.25L151.26,225.34L155.34,230.26L159.43,218.79L163.52,229.92L167.61,217.77L171.7,212.69L175.78,217.41L179.87,209.84L183.96,206.26L188.05,221.06L192.14,219.72L200.31,220.76L204.4,218.23L208.49,200.69L212.58,209.66L216.66,217.92L220.75,196.61L224.84,191.24L228.93,194.25L233.02,215.49L237.1,231.04L245.28,232.12L249.37,229.18L253.46,195.46L257.54,206.4L261.63,214.97L265.72,217.96L269.81,208.21L273.9,216.37L277.98,216.72L282.07,199.06L286.16,209.65L290.25,228.51L294.34,215.5L298.42,219.99L302.51,209.71L306.6,233.86L310.69,227.96L314.78,234.6L318.86,256.96L322.95,222.33L327.04,207.17L331.13,210.39L335.22,196.41L339.3,206.76L343.39,190.17L347.48,187.48L351.57,208.37L355.66,225.32L359.74,223.91L363.83,216.65L367.92,210.49L372.01,211.55L376.1,195.66L380.18,218.82L384.27,195.03L388.36,214.86L392.45,231.59L396.54,206.99L400.62,225.53L404.71,205.98L408.8,201.19L412.89,225.42L416.98,209.32L421.06,215.64L425.15,205.06L429.24,190.6L433.33,193.06L437.42,188.62L441.5,214.33L445.59,193.84L449.68,237.53L453.77,224.33L457.86,196.17L461.94,208.64L466.03,203.44L470.12,201.29L474.21,227.75L478.3,234.26L482.38,222.35L486.47,235.31L490.56,235.44L494.65,237.53L498.74,260.24L502.82,249.68L511,258.08L515.09,246.94L519.18,241.24L523.26,260.91L527.35,248.36L531.44,251L535.53,239.21L539.62,234.72L543.7,227.97L547.79,246.04L551.88,238.01L555.97,231.97L560.06,245.84L564.14,232.17L568.23,231.23L572.32,217.06L576.41,234.5L580.5,220.7L584.58,229.98L588.67,221.81L592.76,229.65L596.85,231.63L600.94,235L605.02,220.37L609.11,225.23L613.2,227.61L617.29,231.18L621.38,230.32L625.46,229.43L629.55,211.41L633.64,219.4L637.73,230.7L641.82,218.39L645.9,220.66L649.99,227.87L654.08,220.45L658.17,228.57L662.26,230.5L666.34,207.06L670.43,228.78L674.52,225.72L678.61,216.11L682.7,231.53L686.78,237.9L690.87,219.04L694.96,223.4L699.05,221.1L703.14,225.35L707.22,216.15L711.31,227.61L715.4,225.83L719.49,228.6L727.66,228.76L731.75,224.39L735.84,234.5L739.93,221.54L744.02,217.36L748.1,226.24L752.19,220.87L756.28,219.79L760.37,216.23L764.46,227.14L768.54,212.73L772.63,227.71L776.72,221.77L780.81,227.09L784.9,232.37L788.98,214.81L793.07,228.04L797.16,238.36L801.25,212.96L805.34,234.6L809.42,214.96L813.51,220.67L817.6,220.76L821.69,222.4L825.78,228.25L829.86,216.84L833.95,222.85L838.04,223.85L842.13,217.69L846.22,226.96L850.3,230.7L854.39,221.14L858.48,220.88L862.57,229.45L866.66,239.17L870.74,221.26L874.83,223.98L878.92,220.99L883.01,220.32L887.1,215.98L891.18,215.37L895.27,210.44L903.45,228.52L907.54,216.89L911.62,209.79L915.71,215.13L919.8,191.79L923.89,200.59L927.98,190.91L932.06,214.67L936.15,221.08L940.24,233.59L944.33,240.03L948.42,229.99L952.5,213.08L956.59,202.89L960.68,227.11L964.77,214.55L968.86,207.5L972.94,216.87L977.03,220.64L981.12,191.47L985.21,190.6L989.3,225.66L993.38,220.04L997.47,205.15L1001.56,192.94L1005.65,224.34L1009.74,221.75L1013.82,229.69L1017.91,230.26L1022,233.11" style="vector-effect: none; fill: none; stroke: rgb(124, 181, 236); stroke-opacity: 1; stroke-width: 2px; opacity: 1;"/></g><g class="points"/><g class="text"/></g></g></g></g><g class="zerolinelayer-above"/><path class="xlines-above crisp" d="M0,0" style="fill: none;"/><path class="ylines-above crisp" d="M0,0" style="fill: none;"/><g class="overlines-above"/><g class="xaxislayer-above"><g class="xtick"><text text-anchor="middle" x="0" y="451" transform="translate(261.31,0)" style="font-family: 'Lucida Grande', 'Open Sans', verdana, arial, sans-serif; font-size: 10px; fill: rgb(0, 0, 0); fill-opacity: 1; white-space: pre;">50</text></g><g class="xtick"><text text-anchor="middle" x="0" y="451" style="font-family: 'Lucida Grande', 'Open Sans', verdana, arial, sans-serif; font-size: 10px; fill: rgb(0, 0, 0); fill-opacity: 1; white-space: pre;" transform="translate(465.71,0)">100</text></g><g class="xtick"><text text-anchor="middle" x="0" y="451" style="font-family: 'Lucida Grande', 'Open Sans', verdana, arial, sans-serif; font-size: 10px; fill: rgb(0, 0, 0); fill-opacity: 1; white-space: pre;" transform="translate(670.11,0)">150</text></g><g class="xtick"><text text-anchor="middle" x="0" y="451" style="font-family: 'Lucida Grande', 'Open Sans', verdana, arial, sans-serif; font-size: 10px; fill: rgb(0, 0, 0); fill-opacity: 1; white-space: pre;" transform="translate(874.51,0)">200</text></g><g class="xtick"><text text-anchor="middle" x="0" y="451" style="font-family: 'Lucida Grande', 'Open Sans', verdana, arial, sans-serif; font-size: 10px; fill: rgb(0, 0, 0); fill-opacity: 1; white-space: pre;" transform="translate(1078.9099999999999,0)">250</text></g></g><g class="yaxislayer-above"><g class="ytick"><text text-anchor="end" x="55" y="3.5" transform="translate(0,435)" style="font-family: 'Lucida Grande', 'Open Sans', verdana, arial, sans-serif; font-size: 10px; fill: rgb(0, 0, 0); fill-opacity: 1; white-space: pre;">0%</text></g><g class="ytick"><text text-anchor="end" x="55" y="3.5" style="font-family: 'Lucida Grande', 'Open Sans', verdana, arial, sans-serif; font-size: 10px; fill: rgb(0, 0, 0); fill-opacity: 1; white-space: pre;" transform="translate(0,358)">20%</text></g><g class="ytick"><text text-anchor="end" x="55" y="3.5" style="font-family: 'Lucida Grande', 'Open Sans', verdana, arial, sans-serif; font-size: 10px; fill: rgb(0, 0, 0); fill-opacity: 1; white-space: pre;" transform="translate(0,281)">40%</text></g><g class="ytick"><text text-anchor="end" x="55" y="3.5" style="font-family: 'Lucida Grande', 'Open Sans', verdana, arial, sans-serif; font-size: 10px; fill: rgb(0, 0, 0); fill-opacity: 1; white-space: pre;" transform="translate(0,204)">60%</text></g><g class="ytick"><text text-anchor="end" x="55" y="3.5" style="font-family: 'Lucida Grande', 'Open Sans', verdana, arial, sans-serif; font-size: 10px; fill: rgb(0, 0, 0); fill-opacity: 1; white-space: pre;" transform="translate(0,127)">80%</text></g><g class="ytick"><text text-anchor="end" x="55" y="3.5" style="font-family: 'Lucida Grande', 'Open Sans', verdana, arial, sans-serif; font-size: 10px; fill: rgb(0, 0, 0); fill-opacity: 1; white-space: pre;" transform="translate(0,50)">100%</text></g></g><g class="overaxes-above"/></g></g><g class="polarlayer"/><g class="smithlayer"/><g class="ternarylayer"/><g class="geolayer"/><g class="funnelarealayer"/><g class="pielayer"/><g class="iciclelayer"/><g class="treemaplayer"/><g class="sunburstlayer"/><g class="glimages"/><defs id="topdefs-c4f44d"><g class="clips"/></defs><g class="layer-above"><g class="imagelayer"/><g class="shapelayer"/></g><g class="infolayer"><g class="g-gtitle"><text class="gtitle" x="550" y="25" text-anchor="middle" dy="0em" style="opacity: 1; font-family: 'Lucida Grande', 'Open Sans', verdana, arial, sans-serif; font-size: 20px; fill: rgb(68, 68, 68); fill-opacity: 1; white-space: pre;"><tspan class="line" dy="0em" x="550" y="25">Fastp: Read GC Content</tspan><tspan class="line" dy="1.3em" x="550" y="25">​<tspan style="font-size:70%" dy="-0.6em">Read 1: After filtering</tspan><tspan dy="0.42em">​</tspan></tspan></text></g><g class="g-xtitle"><text class="xtitle" x="572" y="487" text-anchor="middle" style="opacity: 0.3; font-family: 'Lucida Grande', 'Open Sans', verdana, arial, sans-serif; font-size: 14px; fill: rgb(0, 0, 0); fill-opacity: 1; white-space: pre;">Read Position</text></g><g class="g-ytitle"><text class="ytitle" transform="rotate(-90,23,242.5)" x="23" y="242.5" text-anchor="middle" style="opacity: 0.3; font-family: 'Lucida Grande', 'Open Sans', verdana, arial, sans-serif; font-size: 14px; fill: rgb(0, 0, 0); fill-opacity: 1; white-space: pre;">R1 After filtering: Base Content Percent</text></g></g></svg>