<svg class="main-svg" xmlns="http://www.w3.org/2000/svg" xmlns:xlink="http://www.w3.org/1999/xlink" width="2200" height="1000" style="" viewBox="0 0 1100 500"><rect x="0" y="0" width="1100" height="500" style="fill: rgb(255, 255, 255); fill-opacity: 1;"/><defs id="defs-5841e6"><g class="clips"><clipPath id="clip5841e6xyplot" class="plotclip"><rect width="1022" height="385"/></clipPath><clipPath class="axesclip" id="clip5841e6x"><rect x="61" y="0" width="1022" height="500"/></clipPath><clipPath class="axesclip" id="clip5841e6y"><rect x="0" y="50" width="1100" height="385"/></clipPath><clipPath class="axesclip" id="clip5841e6xy"><rect x="61" y="50" width="1022" height="385"/></clipPath></g><g class="gradients"/><g class="patterns"/></defs><g class="bglayer"/><g class="layer-below"><g class="imagelayer"/><g class="shapelayer"/></g><g class="cartesianlayer"><g class="subplot xy"><g class="layer-subplot"><g class="shapelayer"/><g class="imagelayer"/></g><g class="minor-gridlayer"><g class="x"/><g class="y"/></g><g class="gridlayer"><g class="x"><path class="xgrid crisp" transform="translate(261.31,0)" d="M0,50v385" style="stroke: rgb(0, 0, 0); stroke-opacity: 0.05; stroke-width: 1px;"/><path class="xgrid crisp" transform="translate(465.71,0)" d="M0,50v385" style="stroke: rgb(0, 0, 0); stroke-opacity: 0.05; stroke-width: 1px;"/><path class="xgrid crisp" transform="translate(670.11,0)" d="M0,50v385" style="stroke: rgb(0, 0, 0); stroke-opacity: 0.05; stroke-width: 1px;"/><path class="xgrid crisp" transform="translate(874.51,0)" d="M0,50v385" style="stroke: rgb(0, 0, 0); stroke-opacity: 0.05; stroke-width: 1px;"/><path class="xgrid crisp" transform="translate(1078.9099999999999,0)" d="M0,50v385" style="stroke: rgb(0, 0, 0); stroke-opacity: 0.05; stroke-width: 1px;"/></g><g class="y"><path class="ygrid crisp" transform="translate(0,358)" d="M61,0h1022" style="stroke: rgb(0, 0, 0); stroke-opacity: 0.05; stroke-width: 1px;"/><path class="ygrid crisp" transform="translate(0,281)" d="M61,0h1022" style="stroke: rgb(0, 0, 0); stroke-opacity: 0.05; stroke-width: 1px;"/><path class="ygrid crisp" transform="translate(0,204)" d="M61,0h1022" style="stroke: rgb(0, 0, 0); stroke-opacity: 0.05; stroke-width: 1px;"/><path class="ygrid crisp" transform="translate(0,127)" d="M61,0h1022" style="stroke: rgb(0, 0, 0); stroke-opacity: 0.05; stroke-width: 1px;"/></g></g><g class="zerolinelayer"><path class="yzl zl crisp" transform="translate(0,435)" d="M61,0h1022" style="stroke: rgb(0, 0, 0); stroke-opacity: 0.05; stroke-width: 1px;"/></g><g class="layer-between"><g class="shapelayer"/><g class="imagelayer"/></g><path class="xlines-below"/><path class="ylines-below"/><g class="overlines-below"/><g class="xaxislayer-below"/><g class="yaxislayer-below"/><g class="overaxes-below"/><g class="overplot"><g class="xy" transform="translate(61,50)" clip-path="url(#clip5841e6xyplot)"><g class="scatterlayer mlayer"><g class="trace scatter traceaaac53" style="stroke-miterlimit: 2; opacity: 1;"><g class="fills"/><g class="errorbars"/><g class="lines"><path class="js-line" d="M0,175.8L4.09,215.69L8.18,211.17L12.26,203.05L16.35,226.51L20.44,197.97L24.53,222.32L28.62,205.01L32.7,232.8L36.79,215.49L40.88,215.16L44.97,197.95L49.06,199.94L53.14,218.11L57.23,209.45L61.32,215.17L65.41,222.87L69.5,204.13L73.58,205.83L77.67,201.01L81.76,208.39L85.85,205.23L89.94,213.47L94.02,213.42L98.11,227.17L102.2,214.61L106.29,199.61L110.38,217.4L114.46,207.04L118.55,206.64L122.64,232.08L126.73,236.66L130.82,230.09L134.9,221.98L138.99,218.86L143.08,217.6L147.17,222.22L151.26,220.57L155.34,224.95L159.43,215.31L163.52,217.7L167.61,209.66L171.7,218L175.78,226.58L179.87,217.58L183.96,230.47L188.05,213.15L192.14,216.37L196.22,226.24L204.4,215.21L208.49,220.86L212.58,208.98L216.66,211.97L220.75,215.74L224.84,202.33L228.93,227.1L233.02,215.01L237.1,181.35L241.19,193.43L245.28,194.48L249.37,200.23L253.46,204L257.54,210.12L261.63,206.05L265.72,188.05L269.81,187.42L273.9,192.76L277.98,203.58L282.07,205.59L286.16,203.64L290.25,207.69L294.34,203.12L298.42,230.66L302.51,223.44L306.6,207.35L314.78,214.59L318.86,226.98L322.95,238.79L327.04,217.59L331.13,227.39L335.22,222.64L339.3,216.83L343.39,212.73L351.57,212.53L355.66,225.05L359.74,194.67L363.83,204.46L367.92,237.93L372.01,213.24L376.1,227.71L380.18,236.82L384.27,217.37L388.36,213.22L392.45,217.12L396.54,207.66L400.62,216.7L404.71,222.82L408.8,216.62L412.89,211.89L416.98,222.18L421.06,204.74L425.15,216.82L429.24,195.77L433.33,186.05L437.42,198.96L445.59,190.62L449.68,193.36L453.77,202.81L457.86,197.8L461.94,191.13L466.03,178.7L474.21,196.17L478.3,215.87L482.38,226.44L486.47,226.83L490.56,235.52L494.65,249.81L498.74,238.58L502.82,248.67L506.91,253.09L511,260.39L515.09,267.33L519.18,247.21L523.26,243.51L527.35,241.52L531.44,256.55L535.53,252.38L539.62,250.48L543.7,257.52L547.79,230.04L551.88,234.07L555.97,233.24L560.06,220.67L564.14,229.97L568.23,224.82L576.41,210.67L580.5,224.81L584.58,209.29L588.67,214.22L592.76,220.02L596.85,207.52L600.94,215.38L605.02,212.56L609.11,215.98L613.2,205.81L617.29,214.59L621.38,209.03L625.46,199L629.55,204.56L633.64,216.39L637.73,206.16L641.82,203.13L645.9,198.93L649.99,217.58L654.08,208.03L658.17,202.96L662.26,222.88L666.34,209.18L670.43,201.6L674.52,213.83L678.61,220.53L686.78,200.79L690.87,225.31L694.96,217.29L699.05,227.75L703.14,211.31L707.22,212.53L711.31,214.66L715.4,210.74L719.49,214.45L723.58,219.78L727.66,219.54L731.75,213.45L735.84,209.26L739.93,217.72L744.02,206.99L748.1,227.51L756.28,207.35L760.37,212.23L764.46,205.82L768.54,216.29L772.63,204.73L776.72,214.35L780.81,212.01L784.9,215.99L788.98,203.15L793.07,221.08L797.16,200.68L801.25,211.96L805.34,211.42L809.42,224.94L813.51,211.68L817.6,212.23L821.69,206.89L825.78,219.67L829.86,203.33L833.95,219.72L838.04,213L842.13,214.62L846.22,206.93L850.3,213.99L854.39,220.03L858.48,219.39L862.57,207.02L866.66,212.98L870.74,215.65L874.83,216.13L878.92,216.65L883.01,220.54L887.1,204.97L891.18,210.7L895.27,201.91L899.36,230.18L903.45,209.99L907.54,212.82L911.62,219.52L915.71,207.2L919.8,229.06L923.89,190.14L927.98,217.86L932.06,229.99L936.15,196.01L940.24,199.67L944.33,191.51L948.42,214.59L952.5,214.16L956.59,197.13L960.68,220.25L964.77,190.8L968.86,188.6L972.94,178.81L977.03,207L981.12,176.72L989.3,206.44L993.38,185.38L997.47,193.36L1001.56,226.04L1009.74,174.73L1013.82,161.82L1017.91,211.34L1022,199.05" style="vector-effect: none; fill: none; stroke: rgb(124, 181, 236); stroke-opacity: 1; stroke-width: 2px; opacity: 1;"/></g><g class="points"/><g class="text"/></g></g></g></g><g class="zerolinelayer-above"/><path class="xlines-above crisp" d="M0,0" style="fill: none;"/><path class="ylines-above crisp" d="M0,0" style="fill: none;"/><g class="overlines-above"/><g class="xaxislayer-above"><g class="xtick"><text text-anchor="middle" x="0" y="451" transform="translate(261.31,0)" style="font-family: 'Lucida Grande', 'Open Sans', verdana, arial, sans-serif; font-size: 10px; fill: rgb(0, 0, 0); fill-opacity: 1; white-space: pre;">50</text></g><g class="xtick"><text text-anchor="middle" x="0" y="451" style="font-family: 'Lucida Grande', 'Open Sans', verdana, arial, sans-serif; font-size: 10px; fill: rgb(0, 0, 0); fill-opacity: 1; white-space: pre;" transform="translate(465.71,0)">100</text></g><g class="xtick"><text text-anchor="middle" x="0" y="451" style="font-family: 'Lucida Grande', 'Open Sans', verdana, arial, sans-serif; font-size: 10px; fill: rgb(0, 0, 0); fill-opacity: 1; white-space: pre;" transform="translate(670.11,0)">150</text></g><g class="xtick"><text text-anchor="middle" x="0" y="451" style="font-family: 'Lucida Grande', 'Open Sans', verdana, arial, sans-serif; font-size: 10px; fill: rgb(0, 0, 0); fill-opacity: 1; white-space: pre;" transform="translate(874.51,0)">200</text></g><g class="xtick"><text text-anchor="middle" x="0" y="451" style="font-family: 'Lucida Grande', 'Open Sans', verdana, arial, sans-serif; font-size: 10px; fill: rgb(0, 0, 0); fill-opacity: 1; white-space: pre;" transform="translate(1078.9099999999999,0)">250</text></g></g><g class="yaxislayer-above"><g class="ytick"><text text-anchor="end" x="55" y="3.5" transform="translate(0,435)" style="font-family: 'Lucida Grande', 'Open Sans', verdana, arial, sans-serif; font-size: 10px; fill: rgb(0, 0, 0); fill-opacity: 1; white-space: pre;">0%</text></g><g class="ytick"><text text-anchor="end" x="55" y="3.5" style="font-family: 'Lucida Grande', 'Open Sans', verdana, arial, sans-serif; font-size: 10px; fill: rgb(0, 0, 0); fill-opacity: 1; white-space: pre;" transform="translate(0,358)">20%</text></g><g class="ytick"><text text-anchor="end" x="55" y="3.5" style="font-family: 'Lucida Grande', 'Open Sans', verdana, arial, sans-serif; font-size: 10px; fill: rgb(0, 0, 0); fill-opacity: 1; white-space: pre;" transform="translate(0,281)">40%</text></g><g class="ytick"><text text-anchor="end" x="55" y="3.5" style="font-family: 'Lucida Grande', 'Open Sans', verdana, arial, sans-serif; font-size: 10px; fill: rgb(0, 0, 0); fill-opacity: 1; white-space: pre;" transform="translate(0,204)">60%</text></g><g class="ytick"><text text-anchor="end" x="55" y="3.5" style="font-family: 'Lucida Grande', 'Open Sans', verdana, arial, sans-serif; font-size: 10px; fill: rgb(0, 0, 0); fill-opacity: 1; white-space: pre;" transform="translate(0,127)">80%</text></g><g class="ytick"><text text-anchor="end" x="55" y="3.5" style="font-family: 'Lucida Grande', 'Open Sans', verdana, arial, sans-serif; font-size: 10px; fill: rgb(0, 0, 0); fill-opacity: 1; white-space: pre;" transform="translate(0,50)">100%</text></g></g><g class="overaxes-above"/></g></g><g class="polarlayer"/><g class="smithlayer"/><g class="ternarylayer"/><g class="geolayer"/><g class="funnelarealayer"/><g class="pielayer"/><g class="iciclelayer"/><g class="treemaplayer"/><g class="sunburstlayer"/><g class="glimages"/><defs id="topdefs-5841e6"><g class="clips"/></defs><g class="layer-above"><g class="imagelayer"/><g class="shapelayer"/></g><g class="infolayer"><g class="g-gtitle"><text class="gtitle" x="550" y="25" text-anchor="middle" dy="0em" style="opacity: 1; font-family: 'Lucida Grande', 'Open Sans', verdana, arial, sans-serif; font-size: 20px; fill: rgb(68, 68, 68); fill-opacity: 1; white-space: pre;"><tspan class="line" dy="0em" x="550" y="25">Fastp: Read GC Content</tspan><tspan class="line" dy="1.3em" x="550" y="25">​<tspan style="font-size:70%" dy="-0.6em">Read 2: Before filtering</tspan><tspan dy="0.42em">​</tspan></tspan></text></g><g class="g-xtitle"><text class="xtitle" x="572" y="487" text-anchor="middle" style="opacity: 0.3; font-family: 'Lucida Grande', 'Open Sans', verdana, arial, sans-serif; font-size: 14px; fill: rgb(0, 0, 0); fill-opacity: 1; white-space: pre;">Read Position</text></g><g class="g-ytitle"><text class="ytitle" transform="rotate(-90,23,242.5)" x="23" y="242.5" text-anchor="middle" style="opacity: 0.3; font-family: 'Lucida Grande', 'Open Sans', verdana, arial, sans-serif; font-size: 14px; fill: rgb(0, 0, 0); fill-opacity: 1; white-space: pre;">R2 Before filtering: Base Content Percent</text></g></g></svg>