<svg class="main-svg" xmlns="http://www.w3.org/2000/svg" xmlns:xlink="http://www.w3.org/1999/xlink" width="2200" height="1000" style="" viewBox="0 0 1100 500"><rect x="0" y="0" width="1100" height="500" style="fill: rgb(255, 255, 255); fill-opacity: 1;"/><defs id="defs-9df265"><g class="clips"><clipPath id="clip9df265xyplot" class="plotclip"><rect width="1022" height="385"/></clipPath><clipPath class="axesclip" id="clip9df265x"><rect x="61" y="0" width="1022" height="500"/></clipPath><clipPath class="axesclip" id="clip9df265y"><rect x="0" y="50" width="1100" height="385"/></clipPath><clipPath class="axesclip" id="clip9df265xy"><rect x="61" y="50" width="1022" height="385"/></clipPath></g><g class="gradients"/><g class="patterns"/></defs><g class="bglayer"/><g class="layer-below"><g class="imagelayer"/><g class="shapelayer"/></g><g class="cartesianlayer"><g class="subplot xy"><g class="layer-subplot"><g class="shapelayer"/><g class="imagelayer"/></g><g class="minor-gridlayer"><g class="x"/><g class="y"/></g><g class="gridlayer"><g class="x"><path class="xgrid crisp" transform="translate(261.31,0)" d="M0,50v385" style="stroke: rgb(0, 0, 0); stroke-opacity: 0.05; stroke-width: 1px;"/><path class="xgrid crisp" transform="translate(465.71,0)" d="M0,50v385" style="stroke: rgb(0, 0, 0); stroke-opacity: 0.05; stroke-width: 1px;"/><path class="xgrid crisp" transform="translate(670.11,0)" d="M0,50v385" style="stroke: rgb(0, 0, 0); stroke-opacity: 0.05; stroke-width: 1px;"/><path class="xgrid crisp" transform="translate(874.51,0)" d="M0,50v385" style="stroke: rgb(0, 0, 0); stroke-opacity: 0.05; stroke-width: 1px;"/><path class="xgrid crisp" transform="translate(1078.9099999999999,0)" d="M0,50v385" style="stroke: rgb(0, 0, 0); stroke-opacity: 0.05; stroke-width: 1px;"/></g><g class="y"><path class="ygrid crisp" transform="translate(0,358)" d="M61,0h1022" style="stroke: rgb(0, 0, 0); stroke-opacity: 0.05; stroke-width: 1px;"/><path class="ygrid crisp" transform="translate(0,281)" d="M61,0h1022" style="stroke: rgb(0, 0, 0); stroke-opacity: 0.05; stroke-width: 1px;"/><path class="ygrid crisp" transform="translate(0,204)" d="M61,0h1022" style="stroke: rgb(0, 0, 0); stroke-opacity: 0.05; stroke-width: 1px;"/><path class="ygrid crisp" transform="translate(0,127)" d="M61,0h1022" style="stroke: rgb(0, 0, 0); stroke-opacity: 0.05; stroke-width: 1px;"/></g></g><g class="zerolinelayer"><path class="yzl zl crisp" transform="translate(0,435)" d="M61,0h1022" style="stroke: rgb(0, 0, 0); stroke-opacity: 0.05; stroke-width: 1px;"/></g><g class="layer-between"><g class="shapelayer"/><g class="imagelayer"/></g><path class="xlines-below"/><path class="ylines-below"/><g class="overlines-below"/><g class="xaxislayer-below"/><g class="yaxislayer-below"/><g class="overaxes-below"/><g class="overplot"><g class="xy" transform="translate(61,50)" clip-path="url(#clip9df265xyplot)"><g class="scatterlayer mlayer"><g class="trace scatter trace0cf0bf" style="stroke-miterlimit: 2; opacity: 1;"><g class="fills"/><g class="errorbars"/><g class="lines"><path class="js-line" d="M0,206.39L4.09,205.86L8.18,227.01L16.35,202.85L20.44,210.55L24.53,217.1L28.62,206.56L32.7,219.58L36.79,223.06L40.88,227.33L44.97,243.8L49.06,224.68L53.14,216.2L57.23,226.47L61.32,207.88L65.41,221.31L69.5,208.1L73.58,230.92L77.67,220.5L81.76,232.05L85.85,214.31L89.94,217.26L94.02,230.16L98.11,232.54L102.2,205.63L106.29,221.99L110.38,230.6L114.46,236.29L118.55,216.62L122.64,233.31L126.73,214.9L130.82,238.81L134.9,209.44L138.99,221.95L143.08,204.33L147.17,206.08L151.26,223.54L155.34,230.06L159.43,219.06L163.52,229.48L167.61,216.5L171.7,212.82L175.78,215.77L179.87,208.56L183.96,206.17L188.05,220.08L192.14,219.81L200.31,220.03L204.4,218.38L208.49,200.13L212.58,208.13L216.66,217.85L220.75,196.92L224.84,192.06L228.93,193.85L233.02,214.53L237.1,229.96L245.28,232.4L249.37,228.4L253.46,196.41L257.54,206.82L261.63,213.41L265.72,218.49L269.81,206.92L273.9,215.43L277.98,217.52L282.07,199.77L286.16,209.54L290.25,229.4L294.34,215.91L298.42,220.23L302.51,211.23L306.6,234.95L310.69,229.09L314.78,235.39L318.86,257.44L322.95,222.27L327.04,208.32L331.13,211.23L335.22,197.1L339.3,207.02L343.39,190.85L347.48,188.22L355.66,225.25L359.74,223.38L367.92,210.48L372.01,211.07L376.1,195.95L380.18,218.77L384.27,195.06L388.36,215.7L392.45,231.74L396.54,206.97L400.62,225.18L404.71,206.11L408.8,201.65L412.89,225.72L416.98,209L421.06,215.07L425.15,204.99L429.24,190.52L433.33,193.5L437.42,188.17L441.5,213.72L445.59,193.83L449.68,237.97L453.77,224.13L457.86,196.91L461.94,208.69L466.03,203.33L470.12,202.27L474.21,228.37L478.3,234.5L482.38,222.36L486.47,235.28L490.56,235.7L494.65,237.52L498.74,260.67L502.82,250.09L511,258.43L515.09,247.82L519.18,241.67L523.26,260.22L527.35,248.41L531.44,250.34L535.53,238.78L539.62,234.29L543.7,228.4L547.79,245.91L551.88,237.89L555.97,232.02L560.06,245.47L564.14,232.35L568.23,231.46L572.32,216.96L576.41,234.61L580.5,220.04L584.58,229.95L588.67,221.76L592.76,229.59L596.85,231.85L600.94,235.13L605.02,220.21L609.11,225.24L613.2,227.95L617.29,231.36L621.38,230.01L625.46,229.39L629.55,211.33L633.64,219.19L637.73,230.55L641.82,218.22L645.9,220.78L649.99,227.77L654.08,220.88L658.17,228.37L662.26,230.12L666.34,207.21L670.43,228.65L674.52,225.63L678.61,216L682.7,231.51L686.78,237.83L690.87,218.94L694.96,223.28L699.05,220.58L703.14,224.85L707.22,216.16L711.31,227.2L715.4,225.17L719.49,228.26L723.58,227.7L727.66,228.08L731.75,224.03L735.84,234.14L739.93,220.7L744.02,217.1L748.1,225.64L752.19,220.55L756.28,219.52L760.37,215.8L764.46,226.57L768.54,212.28L772.63,226.94L776.72,221.36L784.9,231.83L788.98,214.54L793.07,227.41L797.16,237.63L801.25,212.7L805.34,234.18L809.42,214.66L813.51,220.47L817.6,220.83L821.69,222.61L825.78,227.96L829.86,216.78L833.95,222.58L838.04,223.52L842.13,217.25L846.22,226.58L850.3,230.11L854.39,220.33L858.48,220.42L862.57,228.95L866.66,238.34L870.74,221L874.83,223.16L878.92,220.23L883.01,219.66L887.1,215.34L891.18,214.52L895.27,210.07L903.45,227.98L907.54,216.2L911.62,209.3L915.71,214.47L919.8,191.4L923.89,200.14L927.98,190.8L932.06,214.09L936.15,220.84L940.24,232.75L944.33,239.15L948.42,229.47L952.5,212.55L956.59,202.8L960.68,226.59L964.77,214.27L968.86,207.2L972.94,216.29L977.03,220.45L981.12,191.51L985.21,190.99L989.3,225.17L993.38,219.67L997.47,205.04L1001.56,192.99L1005.65,223.56L1009.74,221.36L1013.82,229.21L1017.91,229.96L1022,232.38" style="vector-effect: none; fill: none; stroke: rgb(124, 181, 236); stroke-opacity: 1; stroke-width: 2px; opacity: 1;"/></g><g class="points"/><g class="text"/></g></g></g></g><g class="zerolinelayer-above"/><path class="xlines-above crisp" d="M0,0" style="fill: none;"/><path class="ylines-above crisp" d="M0,0" style="fill: none;"/><g class="overlines-above"/><g class="xaxislayer-above"><g class="xtick"><text text-anchor="middle" x="0" y="451" transform="translate(261.31,0)" style="font-family: 'Lucida Grande', 'Open Sans', verdana, arial, sans-serif; font-size: 10px; fill: rgb(0, 0, 0); fill-opacity: 1; white-space: pre;">50</text></g><g class="xtick"><text text-anchor="middle" x="0" y="451" style="font-family: 'Lucida Grande', 'Open Sans', verdana, arial, sans-serif; font-size: 10px; fill: rgb(0, 0, 0); fill-opacity: 1; white-space: pre;" transform="translate(465.71,0)">100</text></g><g class="xtick"><text text-anchor="middle" x="0" y="451" style="font-family: 'Lucida Grande', 'Open Sans', verdana, arial, sans-serif; font-size: 10px; fill: rgb(0, 0, 0); fill-opacity: 1; white-space: pre;" transform="translate(670.11,0)">150</text></g><g class="xtick"><text text-anchor="middle" x="0" y="451" style="font-family: 'Lucida Grande', 'Open Sans', verdana, arial, sans-serif; font-size: 10px; fill: rgb(0, 0, 0); fill-opacity: 1; white-space: pre;" transform="translate(874.51,0)">200</text></g><g class="xtick"><text text-anchor="middle" x="0" y="451" style="font-family: 'Lucida Grande', 'Open Sans', verdana, arial, sans-serif; font-size: 10px; fill: rgb(0, 0, 0); fill-opacity: 1; white-space: pre;" transform="translate(1078.9099999999999,0)">250</text></g></g><g class="yaxislayer-above"><g class="ytick"><text text-anchor="end" x="55" y="3.5" transform="translate(0,435)" style="font-family: 'Lucida Grande', 'Open Sans', verdana, arial, sans-serif; font-size: 10px; fill: rgb(0, 0, 0); fill-opacity: 1; white-space: pre;">0%</text></g><g class="ytick"><text text-anchor="end" x="55" y="3.5" style="font-family: 'Lucida Grande', 'Open Sans', verdana, arial, sans-serif; font-size: 10px; fill: rgb(0, 0, 0); fill-opacity: 1; white-space: pre;" transform="translate(0,358)">20%</text></g><g class="ytick"><text text-anchor="end" x="55" y="3.5" style="font-family: 'Lucida Grande', 'Open Sans', verdana, arial, sans-serif; font-size: 10px; fill: rgb(0, 0, 0); fill-opacity: 1; white-space: pre;" transform="translate(0,281)">40%</text></g><g class="ytick"><text text-anchor="end" x="55" y="3.5" style="font-family: 'Lucida Grande', 'Open Sans', verdana, arial, sans-serif; font-size: 10px; fill: rgb(0, 0, 0); fill-opacity: 1; white-space: pre;" transform="translate(0,204)">60%</text></g><g class="ytick"><text text-anchor="end" x="55" y="3.5" style="font-family: 'Lucida Grande', 'Open Sans', verdana, arial, sans-serif; font-size: 10px; fill: rgb(0, 0, 0); fill-opacity: 1; white-space: pre;" transform="translate(0,127)">80%</text></g><g class="ytick"><text text-anchor="end" x="55" y="3.5" style="font-family: 'Lucida Grande', 'Open Sans', verdana, arial, sans-serif; font-size: 10px; fill: rgb(0, 0, 0); fill-opacity: 1; white-space: pre;" transform="translate(0,50)">100%</text></g></g><g class="overaxes-above"/></g></g><g class="polarlayer"/><g class="smithlayer"/><g class="ternarylayer"/><g class="geolayer"/><g class="funnelarealayer"/><g class="pielayer"/><g class="iciclelayer"/><g class="treemaplayer"/><g class="sunburstlayer"/><g class="glimages"/><defs id="topdefs-9df265"><g class="clips"/></defs><g class="layer-above"><g class="imagelayer"/><g class="shapelayer"/></g><g class="infolayer"><g class="g-gtitle"><text class="gtitle" x="550" y="25" text-anchor="middle" dy="0em" style="opacity: 1; font-family: 'Lucida Grande', 'Open Sans', verdana, arial, sans-serif; font-size: 20px; fill: rgb(68, 68, 68); fill-opacity: 1; white-space: pre;"><tspan class="line" dy="0em" x="550" y="25">Fastp: Read GC Content</tspan><tspan class="line" dy="1.3em" x="550" y="25">​<tspan style="font-size:70%" dy="-0.6em">Read 1: Before filtering</tspan><tspan dy="0.42em">​</tspan></tspan></text></g><g class="g-xtitle"><text class="xtitle" x="572" y="487" text-anchor="middle" style="opacity: 0.3; font-family: 'Lucida Grande', 'Open Sans', verdana, arial, sans-serif; font-size: 14px; fill: rgb(0, 0, 0); fill-opacity: 1; white-space: pre;">Read Position</text></g><g class="g-ytitle"><text class="ytitle" transform="rotate(-90,23,242.5)" x="23" y="242.5" text-anchor="middle" style="opacity: 0.3; font-family: 'Lucida Grande', 'Open Sans', verdana, arial, sans-serif; font-size: 14px; fill: rgb(0, 0, 0); fill-opacity: 1; white-space: pre;">R1 Before filtering: Base Content Percent</text></g></g></svg>