<svg class="main-svg" xmlns="http://www.w3.org/2000/svg" xmlns:xlink="http://www.w3.org/1999/xlink" width="2200" height="1000" style="" viewBox="0 0 1100 500"><rect x="0" y="0" width="1100" height="500" style="fill: rgb(255, 255, 255); fill-opacity: 1;"/><defs id="defs-7d16e6"><g class="clips"><clipPath id="clip7d16e6xyplot" class="plotclip"><rect width="1022" height="385"/></clipPath><clipPath class="axesclip" id="clip7d16e6x"><rect x="61" y="0" width="1022" height="500"/></clipPath><clipPath class="axesclip" id="clip7d16e6y"><rect x="0" y="50" width="1100" height="385"/></clipPath><clipPath class="axesclip" id="clip7d16e6xy"><rect x="61" y="50" width="1022" height="385"/></clipPath></g><g class="gradients"/><g class="patterns"/></defs><g class="bglayer"/><g class="layer-below"><g class="imagelayer"/><g class="shapelayer"/></g><g class="cartesianlayer"><g class="subplot xy"><g class="layer-subplot"><g class="shapelayer"/><g class="imagelayer"/></g><g class="minor-gridlayer"><g class="x"/><g class="y"/></g><g class="gridlayer"><g class="x"><path class="xgrid crisp" transform="translate(261.31,0)" d="M0,50v385" style="stroke: rgb(0, 0, 0); stroke-opacity: 0.05; stroke-width: 1px;"/><path class="xgrid crisp" transform="translate(465.71,0)" d="M0,50v385" style="stroke: rgb(0, 0, 0); stroke-opacity: 0.05; stroke-width: 1px;"/><path class="xgrid crisp" transform="translate(670.11,0)" d="M0,50v385" style="stroke: rgb(0, 0, 0); stroke-opacity: 0.05; stroke-width: 1px;"/><path class="xgrid crisp" transform="translate(874.51,0)" d="M0,50v385" style="stroke: rgb(0, 0, 0); stroke-opacity: 0.05; stroke-width: 1px;"/><path class="xgrid crisp" transform="translate(1078.9099999999999,0)" d="M0,50v385" style="stroke: rgb(0, 0, 0); stroke-opacity: 0.05; stroke-width: 1px;"/></g><g class="y"><path class="ygrid crisp" transform="translate(0,358)" d="M61,0h1022" style="stroke: rgb(0, 0, 0); stroke-opacity: 0.05; stroke-width: 1px;"/><path class="ygrid crisp" transform="translate(0,281)" d="M61,0h1022" style="stroke: rgb(0, 0, 0); stroke-opacity: 0.05; stroke-width: 1px;"/><path class="ygrid crisp" transform="translate(0,204)" d="M61,0h1022" style="stroke: rgb(0, 0, 0); stroke-opacity: 0.05; stroke-width: 1px;"/><path class="ygrid crisp" transform="translate(0,127)" d="M61,0h1022" style="stroke: rgb(0, 0, 0); stroke-opacity: 0.05; stroke-width: 1px;"/></g></g><g class="zerolinelayer"><path class="yzl zl crisp" transform="translate(0,435)" d="M61,0h1022" style="stroke: rgb(0, 0, 0); stroke-opacity: 0.05; stroke-width: 1px;"/></g><g class="layer-between"><g class="shapelayer"/><g class="imagelayer"/></g><path class="xlines-below"/><path class="ylines-below"/><g class="overlines-below"/><g class="xaxislayer-below"/><g class="yaxislayer-below"/><g class="overaxes-below"/><g class="overplot"><g class="xy" transform="translate(61,50)" clip-path="url(#clip7d16e6xyplot)"><g class="scatterlayer mlayer"><g class="trace scatter trace137cc5" style="stroke-miterlimit: 2; opacity: 1;"><g class="fills"/><g class="errorbars"/><g class="lines"><path class="js-line" d="M0,174.89L4.09,216.24L8.18,211.68L12.26,203.07L16.35,227.13L20.44,198.48L24.53,221.98L28.62,205.41L32.7,232.59L36.79,215.17L40.88,215.63L44.97,199.4L49.06,201.21L53.14,217.79L57.23,209.19L65.41,222.89L69.5,205.73L73.58,206.63L77.67,201.3L81.76,208.14L85.85,206.63L89.94,214L94.02,214.13L98.11,228.96L102.2,214.42L106.29,199.65L110.38,218.46L114.46,208.29L118.55,207.42L122.64,233.11L126.73,236.65L134.9,223.37L138.99,218.76L143.08,219.46L147.17,223.07L151.26,221.8L155.34,224.46L159.43,215.94L163.52,219.12L167.61,211.06L171.7,218.24L175.78,226.49L179.87,218.03L183.96,230.92L188.05,213.9L192.14,217.91L196.22,227L200.31,222.38L204.4,215.57L208.49,221.28L212.58,210.31L216.66,212.08L220.75,216.21L224.84,203.62L228.93,227.1L233.02,216.48L237.1,182.97L241.19,194.76L245.28,195.25L249.37,201.35L253.46,204.95L257.54,210.69L261.63,207.64L265.72,189.6L269.81,188.34L273.9,193.53L277.98,205.35L282.07,205.7L286.16,203.56L290.25,207.4L294.34,203.51L298.42,230.55L302.51,223.34L306.6,206.87L310.69,210.96L314.78,214.63L318.86,227.06L322.95,238.34L327.04,217.34L331.13,227.58L335.22,222.21L343.39,211.89L347.48,212.83L351.57,211.62L355.66,225.26L359.74,194.5L363.83,204.7L367.92,238.72L372.01,213.5L376.1,228.17L380.18,237.81L384.27,217.86L388.36,213.22L392.45,217.73L396.54,208L400.62,216.94L404.71,222.99L412.89,212.35L416.98,222.88L421.06,204.66L425.15,217.24L429.24,196.36L433.33,186.34L437.42,199.28L441.5,194.92L445.59,191.08L449.68,193.44L453.77,202.84L457.86,197.81L461.94,191.56L466.03,178.24L470.12,188.16L474.21,195.87L478.3,215.41L482.38,226.08L486.47,226.82L490.56,235.49L494.65,249.72L498.74,238.4L502.82,248.54L506.91,252.71L515.09,267.38L519.18,246.98L523.26,243.37L527.35,241.41L531.44,256.66L535.53,252.55L539.62,250.75L543.7,257.5L547.79,230.04L551.88,234.55L555.97,233.68L560.06,220.98L564.14,230.51L568.23,225.08L576.41,211.33L580.5,225.34L584.58,209.59L588.67,214.48L592.76,220.66L596.85,207.51L600.94,215.7L605.02,212.99L609.11,216.49L613.2,206.33L617.29,215.03L621.38,209.62L625.46,199.29L629.55,205.08L633.64,217.18L637.73,206.4L645.9,199.15L649.99,218.17L654.08,208.54L658.17,203.6L662.26,223.61L666.34,209.74L670.43,202.23L674.52,214.43L678.61,221.21L682.7,211.63L686.78,201.01L690.87,226.23L694.96,218.02L699.05,228.58L703.14,211.72L707.22,213.05L711.31,215.26L715.4,211.06L719.49,214.96L723.58,220.34L727.66,219.91L731.75,213.83L735.84,209.62L739.93,218.43L744.02,207.56L748.1,228.18L756.28,207.98L760.37,212.81L764.46,206.04L768.54,217.18L772.63,204.92L776.72,214.62L780.81,212.34L784.9,216.41L788.98,203.57L793.07,221.77L797.16,200.88L801.25,212.22L805.34,212.2L809.42,225.66L813.51,212.25L817.6,212.85L821.69,207.27L825.78,220.32L829.86,203.65L833.95,220.53L838.04,213.5L842.13,215.4L846.22,207.45L850.3,214.53L854.39,220.63L858.48,220.07L862.57,207.42L866.66,213.37L870.74,216.02L874.83,216.47L878.92,217.39L883.01,221.54L887.1,205.41L891.18,211.35L895.27,202.28L899.36,231.19L903.45,210.58L907.54,213.43L911.62,219.99L915.71,207.56L919.8,230.01L923.89,190.24L927.98,218.5L932.06,231L936.15,196.12L940.24,200.26L944.33,191.88L948.42,215L952.5,214.7L956.59,197.18L960.68,220.96L964.77,191.01L968.86,188.69L972.94,178.89L977.03,207.1L981.12,176.55L989.3,206.65L993.38,185.26L997.47,193.49L1001.56,226.97L1009.74,174.61L1013.82,161.29L1017.91,211.91L1022,199.63" style="vector-effect: none; fill: none; stroke: rgb(124, 181, 236); stroke-opacity: 1; stroke-width: 2px; opacity: 1;"/></g><g class="points"/><g class="text"/></g></g></g></g><g class="zerolinelayer-above"/><path class="xlines-above crisp" d="M0,0" style="fill: none;"/><path class="ylines-above crisp" d="M0,0" style="fill: none;"/><g class="overlines-above"/><g class="xaxislayer-above"><g class="xtick"><text text-anchor="middle" x="0" y="451" transform="translate(261.31,0)" style="font-family: 'Lucida Grande', 'Open Sans', verdana, arial, sans-serif; font-size: 10px; fill: rgb(0, 0, 0); fill-opacity: 1; white-space: pre;">50</text></g><g class="xtick"><text text-anchor="middle" x="0" y="451" style="font-family: 'Lucida Grande', 'Open Sans', verdana, arial, sans-serif; font-size: 10px; fill: rgb(0, 0, 0); fill-opacity: 1; white-space: pre;" transform="translate(465.71,0)">100</text></g><g class="xtick"><text text-anchor="middle" x="0" y="451" style="font-family: 'Lucida Grande', 'Open Sans', verdana, arial, sans-serif; font-size: 10px; fill: rgb(0, 0, 0); fill-opacity: 1; white-space: pre;" transform="translate(670.11,0)">150</text></g><g class="xtick"><text text-anchor="middle" x="0" y="451" style="font-family: 'Lucida Grande', 'Open Sans', verdana, arial, sans-serif; font-size: 10px; fill: rgb(0, 0, 0); fill-opacity: 1; white-space: pre;" transform="translate(874.51,0)">200</text></g><g class="xtick"><text text-anchor="middle" x="0" y="451" style="font-family: 'Lucida Grande', 'Open Sans', verdana, arial, sans-serif; font-size: 10px; fill: rgb(0, 0, 0); fill-opacity: 1; white-space: pre;" transform="translate(1078.9099999999999,0)">250</text></g></g><g class="yaxislayer-above"><g class="ytick"><text text-anchor="end" x="55" y="3.5" transform="translate(0,435)" style="font-family: 'Lucida Grande', 'Open Sans', verdana, arial, sans-serif; font-size: 10px; fill: rgb(0, 0, 0); fill-opacity: 1; white-space: pre;">0%</text></g><g class="ytick"><text text-anchor="end" x="55" y="3.5" style="font-family: 'Lucida Grande', 'Open Sans', verdana, arial, sans-serif; font-size: 10px; fill: rgb(0, 0, 0); fill-opacity: 1; white-space: pre;" transform="translate(0,358)">20%</text></g><g class="ytick"><text text-anchor="end" x="55" y="3.5" style="font-family: 'Lucida Grande', 'Open Sans', verdana, arial, sans-serif; font-size: 10px; fill: rgb(0, 0, 0); fill-opacity: 1; white-space: pre;" transform="translate(0,281)">40%</text></g><g class="ytick"><text text-anchor="end" x="55" y="3.5" style="font-family: 'Lucida Grande', 'Open Sans', verdana, arial, sans-serif; font-size: 10px; fill: rgb(0, 0, 0); fill-opacity: 1; white-space: pre;" transform="translate(0,204)">60%</text></g><g class="ytick"><text text-anchor="end" x="55" y="3.5" style="font-family: 'Lucida Grande', 'Open Sans', verdana, arial, sans-serif; font-size: 10px; fill: rgb(0, 0, 0); fill-opacity: 1; white-space: pre;" transform="translate(0,127)">80%</text></g><g class="ytick"><text text-anchor="end" x="55" y="3.5" style="font-family: 'Lucida Grande', 'Open Sans', verdana, arial, sans-serif; font-size: 10px; fill: rgb(0, 0, 0); fill-opacity: 1; white-space: pre;" transform="translate(0,50)">100%</text></g></g><g class="overaxes-above"/></g></g><g class="polarlayer"/><g class="smithlayer"/><g class="ternarylayer"/><g class="geolayer"/><g class="funnelarealayer"/><g class="pielayer"/><g class="iciclelayer"/><g class="treemaplayer"/><g class="sunburstlayer"/><g class="glimages"/><defs id="topdefs-7d16e6"><g class="clips"/></defs><g class="layer-above"><g class="imagelayer"/><g class="shapelayer"/></g><g class="infolayer"><g class="g-gtitle"><text class="gtitle" x="550" y="25" text-anchor="middle" dy="0em" style="opacity: 1; font-family: 'Lucida Grande', 'Open Sans', verdana, arial, sans-serif; font-size: 20px; fill: rgb(68, 68, 68); fill-opacity: 1; white-space: pre;"><tspan class="line" dy="0em" x="550" y="25">Fastp: Read GC Content</tspan><tspan class="line" dy="1.3em" x="550" y="25">​<tspan style="font-size:70%" dy="-0.6em">Read 2: After filtering</tspan><tspan dy="0.42em">​</tspan></tspan></text></g><g class="g-xtitle"><text class="xtitle" x="572" y="487" text-anchor="middle" style="opacity: 0.3; font-family: 'Lucida Grande', 'Open Sans', verdana, arial, sans-serif; font-size: 14px; fill: rgb(0, 0, 0); fill-opacity: 1; white-space: pre;">Read Position</text></g><g class="g-ytitle"><text class="ytitle" transform="rotate(-90,23,242.5)" x="23" y="242.5" text-anchor="middle" style="opacity: 0.3; font-family: 'Lucida Grande', 'Open Sans', verdana, arial, sans-serif; font-size: 14px; fill: rgb(0, 0, 0); fill-opacity: 1; white-space: pre;">R2 After filtering: Base Content Percent</text></g></g></svg>